/* XPM */
static char *b75dc6e8f19f4f7be28214662bac76d1UZ3Z6IFcRsTNPcAa[] = {
/* columns rows colors chars-per-pixel */
"128 128 52 1 ",
"  c #68645F",
". c #6A6661",
"X c #6E6A66",
"o c #6F6C68",
"O c #716E6A",
"+ c #75726E",
"@ c #78746F",
"# c #777470",
"$ c #797672",
"% c #7D7A76",
"& c #7F7C78",
"* c #807C77",
"= c #817E7A",
"- c #84817D",
"; c #84827E",
": c #86847F",
"> c #88857F",
", c #868480",
"< c #888682",
"1 c #8A8783",
"2 c #8A8883",
"3 c #8B8883",
"4 c #8B8984",
"5 c #8C8A85",
"6 c #8C8B87",
"7 c #8E8C87",
"8 c #8F8D88",
"9 c #908C87",
"0 c #908E88",
"q c #918F8A",
"w c #928F8A",
"e c #928F8B",
"r c #93908B",
"t c #93918B",
"y c #93918C",
"u c #94928D",
"i c #96948F",
"p c #98948F",
"a c #959491",
"s c #979590",
"d c #989691",
"f c #9A9893",
"g c #9B9994",
"h c #9C9994",
"j c #9C9995",
"k c #9D9C97",
"l c #9E9C97",
"z c #A09D97",
"x c #A19E99",
"c c #A3A19D",
"v c #A4A29D",
"b c #A9A6A1",
/* pixels */
"sq<55785554<,<<<4;4,5q8,<<55,dddgdydduuyrydj<22<q8qqqrrr5rqddq7522<4<<<45<<4ydiuy,q75544qisdfjjlxjjgdddfdldgssfjgjddiidussd8qiuu",
"8,,<48qqr854455<2<<<;,<<<4<<;45254<4555<5<uu@#$$$%=====*%%%%%@$@@@@@@@@@@$$@##@@O@%;,q:<,==;,<2<<<,,;;;58ysy54,;:;==;=;=&=%&&%%5",
"q,,;;<5555q<487474<<<=,;<4<4<<42<554<<<2<<<<@O$#$$$&&%%%%$$&$O@$$$$$@#@@@@@@++$@+#@%;q42==%;;&::;,,;;;&;;;;;,,;;;===$%%==&%%%%%2",
"8,;,,,<455<<44q52<,,<<<4455888442<<444<<<<,<@@#@+$$%$%%%%$$$$%$%$$@$@@@##$@@+#@@@@$@=r:;;;===;,<<:,;;==;;;;;;;;;===&$$%%$%%%%%$<",
"u5<,<<<<44<<2455<<<;<4<45758yq5<<585<<4244,<+O@+@%$$$$%%+@$$$%&%$@$@@@@###@@@@O@@@$@%q=;==&=;;;<;:;;==&:;;;;;;;:=;=%%%%$$@$@$=%5",
"74<;<<584444<<<<44<<<455qqqqrq5<44<,&:<2,;;;@@@@$$$$$$@@$$@$%$$@@@@@O@@$#@@@@+O+@@$@$q;;;;;;;;;;;;;;===;=;;;;;<:;;;=%&&%%%;;%=&5",
"d4,;;<558544<,<<4q558458qyiyiu85544,;<<<8,,;@@%$%$$$$$$$$@@@%$$@@$$O@@@@$#@@@++O@&%=%q;;;;;;;;;;=;;=&=;;:=;;;;:;>:;<===;%$%$&%%5",
"u5;;;:4555<<<4<<444454quqqqrry84<<,;:;<,<5;<@$$%=%$%$%$%$%@@O@@@OOO@+@+@$$###@@+$$%%%q>;;;;;;;;;=;;=;;;;=;;=;;<;::<;=;==$%&%=%&7",
"u5<;<;<4<,2<<554<5q55557quqrurq8<,;%,;;,,<<4$#$%%%%$@@$$@$%@$@O@+@++++++@@@@@++$$%%%%d<<,:;;;;=;=;;=====&==;;:<:;;>:;;%@$%#%==;5",
"d75<,,<4<<<<<555455q8555qyyuyqqq554,,<<;8<44@+%%%%$&%$$$@$=$$@@@O+@O++++@@@+@@@@@$%%%j:>:;;;;===;;;=%%==&&==@=;;;;:<<:=%%%%%%%&q",
"vu<;<4,<2<4<<<55455<47555quudu78q55,<<4;4557$#$%%%%%%$%$$%$*@@@@OOOO$#+@@@@++@@@$$%%%j:;;;;;;===;;;%==;======;;;>2::;;&%=%==&==7",
"lu<,;55255<<<,454<<q45q58uq8qru8885544<<5544$$$%%%%%%;$%$@$$$@#@OO@@@@O@@$@@+@#%$%%%%j;;&&&&=;;;;;;;;====&&&;;;;;:>:;;=&=&&&===q",
"u7,,<<;,<574425<4<<444r5q4255884,<25qq845555%%$%%%$%%$=%@$$$$@@@#%@@++@#@O+OO@$$@$%%%j=&&&===;;;;;;=;=;;&&&==;;;;:>>;=%%%%%%%&&5",
"5<;::;,;;,454<2<552445755<4587<5,<<<8q55qy88%%%%%%%%%%$$#$%@@@+@@#O@@++OOoo@@@@#@$$$Xd=;&====;<;=;;;;;=$==%=;;;;=;>>;=&=&%$=%%%<",
"7;<4,;;;;;,24<;45<<45558454582<5<;<44q8yuyyq=%%$%%%$%$$$#$#@@$@#$#@@OoOoX@oO+@@#@$$@$d======;;;;;:;,=;===%&&=;;;<;><;===%%%@%$X$",
"q<8<<q4;4;;;:;<<54<<,<424445<525<;4845sqqq8s%%%$$$$%%$%#+@@@@@@@@@@@@O.Oo@OOO@@$@$$$$d=;===;;;;;;;;=&,;=;==&=;;;;;<;;;=%%%%%%%$%",
"72<444<;,;5;;<<<55<,<<444455<48558478ryqqqqg%$$$$%%%%%@@@#@+$@@@OO++XOOXOOOO+@$#$%$%$f=;==&&&&==;;==&========;;;;;;;===%%%%%$%%%",
"4;4;;;:;;;,<<<<;2444<<=<555445qq55758qqqqq5d&$%%$%%$%@#@##@@@+O@@++@OOo+O@+OO$$$%$$$$s%;=%&&%&%&===&%====%;==&;;;;;====%&&%;=&%&",
"2=,;,5:;<<<;5<<44<5244554,5<2575;5qq8qyqqr:q$$$$#%%%$@##$$$@$++@@OOOoOoOO#+@O@@$$%%$@5%&&%%%&%%===;=;;===%%%%==;:=;===&&=%%%%%%%",
",,=5,<,<44<,<,,<2<2<4755554;<455,5578yyqy<;<$@$$$$@$@%$$@#@$%%@OO@@+O@#@@@+OO@@$#$%@#4&%==%&=;;=;;=;<;==&%%&==4;;;;;;;=&=&&=%=%%",
"<=&%<44<555<,,<<,<,;=&&;2;,,<,24<<455555:,:<=%$$@$@@##$$@$#$###++O$@#@@@@#$@#<<$$$$&=<=%%&%&=&&;==&====%$@@@$%===&==&%&%=&%&&$$=",
"q558ruuuiuuqrqyuiuq55588ddsuuiiuuidjjgjljsidssfddisssdd58ddddu72;,<yy8suu85,<45558rsgsyyiiudggfgffy5q85q<<5<547qidgd885585uuqq55",
"<,=%%==%%%%$%$=;==;,;425y87<,<44;<7<yuy8isjlju75542<<,<<q88545,;4&;&%#@##@##%%==;,<5yq4&%$%%&;;==&%%%%%=;;<<<<;;>;;<::====%%%==;",
"===%%=;=%==%=;;;;<;4488y775;255545558q8qyqqqr55<585<,<2554255<<,5;&#$%%%%%%&%%;;;;;;=%$%$#$%&&&&%%&;;&%$&;q<,=;;;=;<;;====*=&=%;",
"====%%%%%====;;<<;;;<u8qr74252844qq8qq55qqqq554552<<558qqufduq84s&%%%%%&&%%%&&======$=%%%#$%%&&&%%%%%%%$#=5;;==;===;;;=========;",
"%%&=%$%&%%==;;;;:><<:yqrq5845y<452yqrq85555555<2<25<5q58uuuyqqq5j=&%$%%%==;=,=&===&&$%%%$$$%%&%$%%$#$$$##%8====;;===;========;;=",
"%=%%%%%%$%%==;;>>22<;q8q8754544<<45yuq55555555552<;,4q7qysyrq8q5g$%&=;,==;&=;;==&&=&%=%#$$$$#%%$$$$#@#%$@$5=;=;;;==;;=%====;%%=%",
"%$%%$%%%%$%%==;=;;>>;q555<525;:<457<8q54555554<<4455<4q7qqqqqq85d%$$&&&&&===;====&&&%%$%$$###$$$$$#######@;;=========*===%====%%",
",%%$$%=&%%%%*=;;=;;=;5<524<<:5<,455557q558445;<5<5425258qqqqqqq7g%&%%&%&=&&=;=;==&=&%%%$%$##$$$$$#$$%&&##@,$%$$====*%%=;=**==;%%",
"=%$%$$&&%$$$==%=%=%*=524574,<2;;<57588q555557r8555558878qqqqq7q7g%%%&%%%%%&&;=;====&&%%%%$%#$####$$$%%$$#@,%%%%$%$$%%*&=*===5==;",
"&%%$$%=%%%$$%===*%===54554q5<<<<54<588575545q8q55uyyyuq8qryqqqq7f$$%&&&%&&&&&==;===&&&%$&$$$$%#%$%%%%%%$#@<%&%%*%%%%%%%%===;;===",
";%$%$%*%%%;%$*<=%&=<;q5547qqq75:5<55qq85455q8q8yq7qyqqqqrqryqqq<s$$$$$%%%%&&=&====&&&&%&$##$$##$$%%%%%%$#+;$$%%$$$=%%@%===*;===;",
"%$%%%%*%%%*$%%=;==;;;r45<4<5uq4<5248qqy8554<7yq88qquq55rqqq525<<i$%$$$$$@$&&=&====&&&=&%%###$##$$$O$&%$$+o;$$$$$$$%%%%%*===%*=%%",
"%%%%%%%===*%===;;;;;;uq<55<%555552<58rq55y457qqqq7587qqqq<<52<<<u$%######$#%&====&&&=&&&%$$######$$#%%$#@+;$%%%%%$*%%%%======%=%",
"=%$%%*%%%%=%===;;=;;;id55<<<<<qq24578qr74<5557qq5854q8qq54<<2=<;q#@@$@@##$%%&====&&&&=&&&$$#%%$$O#$%%%$#@@<%%%%%%%=%%%%%+====%==",
"=**==%&%@;;===;===;;;ff75<42455u5557qyyq5<5755q775488qrq5<<4;<;;q@@@@#@@##$%%%%%=&=%&&&%&%%$%%%$%#$%%$$$#$5$%%%%**=%=%%%%====&;@",
"==;=$==%=;====%===>;;rd5555545555858qqqqq55528qq85777qrq754,,;==y@$#$+.@@+@&&%==&%%&%&&&&&$$$#$$$$$$$$$#$#q$%$%%%=;==%%%%=%@==%=",
"%@%$==*%===%@%=%=;><>qdr55q<5555555s8q8q885558qqq55875yq558<44<;5+++O#+@++$$%%&&&%%&&&&=&%%$O$#$%$$%$$$@#@q%%%;%%%%===%%%%**%==%",
"$&$%%*=====*%=&;*=;>:dd558y855q5585585yq885557qqq57q8qq5qq55<,2;,@++#$##O@###%%$%%%&&&&&&&%%$@#%$$%%$#$@#@8$%%=%%%%*==*$%%%$=%&&",
"@@$%%==;=====*%===;;:7iq55555555885558qqqqq8r75788qq58875572<<<%&@%#$####$@##$%%%%&=&&&&&%%$#@#=$#%$$$#$#+<#%%%=%%%==%%%%$$$%$$@",
"@@$%$=======$===;>>;&:<5y5885455585557qqqq88q8557qqqq588585525;%%@#&#####$####$%%%&&&&%%%%%####%%%%#$+$#+@=+@=%%%=====%%%$$%%%%=",
"O@%%%%&==%=======;==;2>;;4244,2458555788qqr85884555555452<744:&%%&$#%%%%%%$%=&%%&%$$+++#$%%%%###%$$#$$$+@%=#@@%=%%%%%%%%%%%%=$#@",
"=&&;5udiuyqyq55455q7q75757yq85888qqjjddgcjdyrqyryuuyruuuqqq555qy884yssu5<78y<<<54455<<,,<584qy45uy4<,,<,,,,4<<5q55552<<,<<<;,;=&",
";%;&==%;&%%$%&%%=;;:q55;%=%;;2;&&=5quyryuusy8<488;2u87q555,=;=,8y5,<;;;=;=%%%=;555884q=;;=2,,<;<2<;====&=;&%$$%&$$OO=====%X@@%&%",
"8==%&=%<=;;====&=;=<<<<:;;;;=;==;;;;$;;;;,uy;;;,,<<<<44<,,;;<,,<,,,<<4,;,;;;,;,<<=;58s,=$%@@@@##$$@@@@@@@@@+@$=$+OOXOO@@@@@@@o%=",
"8&==%=&;=&%%&==;;==;;;;;;;;;=====;;;;==&;;di4;;,,<,<<44<,,,:<<,5<,;,45,;;;<;;<;:,;;45s;%%$@+@#@@##$##$##$#@@@$%@$$OOOOOO$%@+@@O$",
"y===&=&%&&%%%;;;===;;:;;;;;;;=,==;;,;====;yg54,,<,,4<<<<,,,,<<<<;,,5<24<;;,;;;:;;,,44q&%$#@O$###$@@@@$@@@@@OO%%$@@$O@OOO@=%$$@@@",
"i======&&%&%%&;=;;=;;;;;;;;===&&=;;;;;=;&;8u<4,544,<<<<<<,,<<2<<,<2<<<4<;;;;;;;;<<;<,5%$@@@@@@@#$O@@@@#@@@@O$$$@OO++@@O@$@@@$$%$",
"u=;;=;==%=&$&%===;&=;;;;;;;;&&%&=;;;;;===;uu5<<275,;,<<<,;;,<<<,<<<<54<2,,:,<:,;<<<<<5$$#+####$##@+@@@@@+OOO$@#@+@OOOO@$$@@@@@@@",
"s;;<;;==&=%%%&&==;=;;;;;;;==&&&&=;;;;;==%&d<;<842<4,<,,,;;;,<<2<45<445542<<<2<4<<,2848%$@@@@@@O@@$@##@$$$O@$@#@@OO@@OO$$=@@@$$$$",
"d;;=;;;:==&&%%%=;,:,;===;;==&=&&;;;;;;;=&=uq,4544r<<<,;;;;;;<,42454<5yq5q544<,<<,44<<8%@@@#@@@@+#@@@#@OOOoOO@@$@@O+O+OOO$@$@@$$$",
"f;;=;;&;%=;%%=%;;==;&;===%==&&==;;;;;;==&=uq<45452y5<<;;==;;,,,4555455555<5552<<,,52<7%#$$##@@@@@#@@@+#O++O@O+@@@+O@@O@O@@@$$$%%",
"d;;;==&=%%&&&%%%;=;==;====%&%%;&%;;=;;=&&;qu<<44<444;,:;;<=;,,2<555<545<4445554<<,,2<4%$@$$$#@@@+@@$@@@#@X++@@@@@@$@@OO@O$@$$$%%",
"u;;;;;;=%%&&&%%%%&&&==;;%=;%;;=;;;:=;;==;;qq;;<4<444<,;;,;;=;;,<554445424455752<,,,:<8%$#$&$%@@OoO@+@@@@@+@@#@@@#$$@OOO@@%%$$$%$",
"i;;;;:;&$%O$%%%%&%&===;;;;;&&==&;====;;==;qq,;<<44842<,;=;4;;<<,<555545254575252<<2<57%@@$%$$#@++X@@O@@@OO@@#@@@@@$@OO+@@@$$$%@;",
"i;;;;2;=&&$%%%%%%&&===;;,;=;&&%;======;;;;qy;<454<,<<2,,;;;;;;<,;<4555<<257545424<222q%#+O@$$@@$@@+OO+@@@@$@@@@@@@@@$@O@$@@$@%$2",
"q;;;;;;&=%%%%&$%%&&===;;;;;;&%;=%===;;;;;;sq,,4<;44,,,<,<;;:;;,;<<<5555575757252<4<4<7$#$$$###@$#+@@@$#$$#@+++@OOX@+@@+O@$$@$$$2",
"r;;<;;;=%=%%%&$%;=%&&==;;,;=%%;;;;;;;;;;;;fy,<2<;;,,;;<,,,,,<;;,<42<555577<522772254<7$@##+$####@#@@@$$#$@@%@@@@O@$#@@@@$$$@@$%2",
"r;=;::;=&=&&%=&=%&==;;;;<;;=;,%&;;;;;;,;;;qr,<<<,,;4<,,4,,;;,,;,<<4555557725557q5422,2$$@@$@@$$$@$$%;&%%%$$$$@#@@OO@@OO@$$$@%$%7",
"u;;;<,;=%==&%&%===;;;;<<:,;,;;,;;;;;;;;;;;58,,44<4<2<<24<<,;;,,,<24555577755527q2552:5$@#@#@@@%%%%%%%%$%%&$$@@OOOOXOOoOO@@@@@$$5",
"u<;;=;;=;=;===&;;=;;,,<;,4,<=,,;;;;==;;;,;4;,,<<<<44<,<<4<;;,,:,<<<55757q75q525724<::2$@%$#$#$%%%%%%%=%=&%$@@@$#@OooOXXOO+OOO@@<",
"7==;;;;=,;=&&=%=&=;;;;;,,<,,;,,;;;;=;;;:;%;&:;<,,<<<,<<<,,,,:,,,<<2477555777q25752<<=;@$@#$%@%%%&%%%%$%%%%$$$#@$@+OOOXX.O+O+O@@;",
"7;=;:,;:;;;;;;&;=;==&=;,<,,,::;;&;=;<:<:%%;%=852,,4<<<4<=,,,;;;<<<25755577r755<75<4=&=@+$+@@$@#$%%%;%$%%$$%%%$%$+@OOOOoOO+@@@@$<",
"r4555quyuysrurq584<;=&=<5;;;;;;;;,;;:4:=%;<;&=,<44qssdiyuuurr5<===::<<<2225552555<=&=,%+@@#@$@@@@$$$$%<;28555555<:;;;;;=;;;:;;<r",
"q8qqiddzxldvjuqq75<2,<<25q8yqyyqq75478<4548yqqqriufgsjd8qqdu5<,844<8uuuuiiuuurriq7742<,<5i52qdq5quq558uur5bjjjjpjpuijdddququqddq",
"<<57duurruruq5<55<52<4,,<<;;;;;;=%;%=%%&%,,;&;;:<5q7<<=;==&%%;=,5;;qqq77755<275<;;;;<,=%=&=&=======;;=;<<;furrqq25qq555<22<<<<2>",
"557ruupuurruqq5q7q5ryq44=;;==;;;;=;=&%%%&&$%&&=<<<:<<<;:===%&%,555q555555555272552q<;;;;;;=;=;;;;;;;;,;:<:fqurrq9555qq5525<<<<<5",
"557rquuuruuruqqqqqqqui,=;;;=&===;==%;;%%%%=&====;;,<<;;;%%&&=;;qy55575575522q77255<<<;;=;;=;;;=;;;;;;;4<<:drurqq5q5q25rq5525<255",
"55qqrquruuqqqqqqqqqrds=;;;;=;;&=;=&=;@%=;;==;;;;;;:<;====&$;2<=4sqqrq58r52225222<<2:<,;;<<<<;;;;;;;;:;;<<:jqrrqq55qqqqqqqq52<5qq",
"qqqqqqqrrrrqqqprqrqqjd==;;==&======&%==&==<;&<;=;;;;===;;;;=;;;;d<<257ru555222<<5<<<:;;;;;;;;===;;=;;;<<;;d55>q5555559qqqquq555q",
"qrqqqqquuururquuufsrjq=;==&%=;=;=;;=;;&==;==;=;;;;;;=;==;;;=;;;;u5q755qq57;2<<2><:;;;<;==;;;;==;;;;,;<*;;;d5522<><5552qqqqqrqqqq",
"qqqqqqqqrpurquduqrurjd==;&&&=======%<;&&%===$%@&%%;=&===;===;;;5d4rq5555555<2<5<<;;;;;;=;;;;;<;;;=<<,;;:;;s5<55555<5559qq5q5q5qq",
"qqqq555qrquqqjurururjj:;=%%&=;;===%%%=7<;;=;&===%%=;===;;====;;uj5555552<<5<<<2<<;;;=;;;;:;<<<<<<<<<<:;;;;i555<2552<525q5555<q5q",
"5qq5<5q5555ququuuuuuly;=&=%;&;=;;&%%%&$,=;%%=%%&==&=====;=&==;;ul752554<<<<<<<;5<;;=;==;,<4<<<<<52<<5<:;;;i7q5555q555<<q555q55q5",
"5q5555q555qqqrquuuuulr=%%%====;;,;=;==;&;&&==;%%%&%=======%%=;;ud2555552<<<555;;:;,;=;==;<<<<2<<5<5<55<<:,i2r5557q5552<255555555",
"q5255r22555qqquuuquujq%&%====;<;,:;;;;=;===&&&;,=;;==;;===%%=;;ud555552<<<<<25,;<:;;;;=;;<<<<;::<<2<55;<<;u55<555q5552<2555555qq",
"q55q555<5<555qur7qquf5$;&;===;;;;;;;;;=====;;,=;==&;;===;=%==;=ud555522<<<<<22::;<;;;;;;;;<<<;5;;42<<52<<;u225755q55555;55555q5q",
";55<q5<<<<<<57quuiqqjq&%%=&=;;;%;;;<5;===;;;;;=;;;;%%$$&%=%&=;;id5555422<<<::;<<;::;;;;;;;;;;<<45<52555<<;u<5525qqq5q5552<<55=55",
"<<<2>5<<q5<5q5qqqquqd8=&&=&=;;<<;;;;<;=&;=,;;;===%%%%&@+&;;%==;ud5555555<<<<<;:<<<<==;;;;,<:;;,,<55555522;u55q55555555r55<<>;<<<",
"<<555q5<55<5qqqqqqqrf8;=%;&&;;<<;;;;,;<;;=;=&&=====%##@%$X=%;;;ud25555<5<<;:<:,<,<;;;,;;<,<<<<<:,<2225575<s5u5555555q555<<5;;*==",
"><<5555;5555q7qrqqqud7%=====;;,<<:;;;;;;;=%%===;==%&%%==%%%&=;:ud5257554<;<:<;;,;:;;;;,;,<<<<<<<<<<<<5552<d557555qq55555<;=<5<5;",
"<575uqq<;5qurqqqrqqrdq,;=;,;;;<4:<,<<;;;==&%;;=%&=;&&$$%%=&&=;;sd<55555<;:<:,:,:;,;;;;,;<<;,,::<<<<454<<2;uqq55qrqqq525;;<<55<<;",
"q22<2q5252<7qqqqq5qqju;;:;;;;;,;,,;:&========%;;=;==%&%%&=&==;;ux555845<<<;:<,:;;;;;;;;<;:;;:;:<<52<25254=7;ruqq77q5qq5<>==<<<;2",
"<5rq57555q25qqqr5rurju:<;;;;<<<<;;==;;===;==;===&;&=&%==%%%%====<&;555<<:,;<<<,:=;;;=;,;;;:;;;:<542<4555==5;:qqrqqqq57<7;<<;<5<5",
"=;><55q555555555qruqdu;;;;;;;;:;;;;=,=&%%$$%==;;;;;=;;;;==&%&%%<5;;=;;;;;;;;;<;;;==%$$%%=;;;;;:;;2;;<,;==:q2;;55q775<5<<5555;;%&",
":<5yyuduii8<<<44255855758gfxjjjgddddsiuq5<;,qudgdduuusuuuyusuuuyrsgjjjgfdu8yyuq548<;=&;;<55qrusuyqd75squ8u88usssddduqqqyrqq54:;;",
"&$$O@@@@@@@OOO#@@$%%%%$$$$$$$%%$#@#$#@+#%&45885rq5,<<;;;;<<555qjxxjgiyq8qquryr4<424,;5;;,&&&=,,<;=%%%&;<<8q5<%&=;;&%%%$$$#@$&&=4",
"&$XO++@@@@$$OOOO@$$$$$@@$@$$$%%$@@%$@@@O#&<qqqqsy855552<52<8q8q8uisuuuurqq<uu55545285y,=%&&;;;;;=&&===;;;;;;=%%%==;=%%%%%%%%$;=8",
"$O+OOO@$@@+@OOOO+@@@$+@@##@$%$O@@@@#O#@OO%55uryuuq55qq555q<5qq58yuuuuuu555q57555q5554u;====;;;;=%%===;;=;;=@=&==%=&=&%%%%$$%%%&y",
"OOOXXO@$@@@@OOXOO@@@$+#@#$#$$.$@$@@%$@@@@o5uriusyq854<q5555<7qqqquuuuuur8575755555584s===;=;==;=&&==;;,;=;;==========&%%%%%%%&$y",
"@OOXXO@@@@@O@O@OO+O++$$#$@#$#@$$@@@#@ @OO#4uyuqy5qq5557q55757qqrusiuuuurq7555555558y5f=;=;;;==;=&&=;;;,;=;;;=;=;===&&@%%&%%&=,%y",
"O@OO@O@@@@@@OOOoOO@$+@@@@@$#@#@@oooO@+O+@#5iqqqqq8855755752qqq8qyiiiuurruq75855555q88d;;;,;;===%&&&=;;;======;;,;;==%%%&&&%=%%%q",
"@OOOOo@@@$#@OO@OOO@@@@@@+#@+@@@OoO+@#+++@#5sqq8q88575555555qqquuuuiiiurqrr7555255qq54d;;,;;===@=&=;=,;;====&=====$&&%%%%&===%=%q",
"OOOO XO+@@@@OoOOO@@+@@$@@@@@@#@. .X@@@@@#$5sqq7q88758555558qqruuiiuuuuuqq7q7555855555d=;;;;;;=%====;,;;;=;===&%&&=;%%$$=&=%&%=%;",
"+OOOOO@@#@@OOOXX+@@#@#@##$$$$OOO@#+@+@@$##8iyqq8q8757555558qrqruuduuuuir55qq5555855q8g=;;;===%&==;=;;;:;;=&&=&&&&&&%%%%%==%&%&%5",
"OO+OOO@@@@@@OO+++@#$#@@@oO@@O+@OO@+@@$$#$$5u7qruq77585<7558ryrrrruuuuuq555<444558u555d;;;;===%===;=;=;;;==&<%%%%%%%%%%%%===%%%%<",
"O@OOO@@@o.XOO+@+@@@$@$#@@+O@@@$@O@@#$$$$$$4uqqruq85<8dq555qqrrquurruuuqq555255785q554s=;;;;=&=&&&%;==;;==%&%%%%%%%%%%&&%==&%%%%;",
"@@@OO@@.O+OOOO@@@@@@#$#@X+@#$#@@@@@X$$@@@O5uurqquruqu75y758qqqqqurruuuqq55<8577582qq5d=;;;&;;&=&%%&=%=;;==%$%&&%%%%%%%%%==%&%%%y",
"@$+OO+$@OOOXoO+@#@O@$#@X+OO@@@#@@@@@$$@@@@5u57rqyqq7qqyuqu8qrqq<qryuu5qq55555557qquiqd;;;;;==%===%%%%%;&&%=%&%=%%%%%%%%%==%=&%%u",
"O+OoO@$@OOOO.OO$$$$@OoOXO++@$#@#####$$$$$$4uqurqqqru7qq8<87qru75578ru2855555758qquqruj,;::;;==&=&&%%==;<;=&%#$&%%&%%%%%==&==%%%q",
"OOOO@@@@OOOOX#O#$@@@@#@#.+$@##$%$$@@$$#$@$5udsduququqqqqqq7qr55455522qqrq52<8uq5qruuuc:,,<:;;;==&&&&&=;;;=%$$&%%&%%%&%%%&===&%%y",
"OOO+@@@OOOO@OX@#@$$$$$%$$%$#%=%@@+@##$#$$$5yuusiuisuuru>qqqqu855555<55q5528;qquq7ururz:;;<<:;;==%&;O=;==&=%%$%=&=%%%;%%%&&===%%r",
"OOOO@@@O@XO+oOo@@$$@##@$$$&%$%$@@@@$%=%$$$48uuiiiuuyusr555qrq52<254<55q5<5255qquuuuurl22::<,;;;;===$;;;==&%&%&%&&O&%&=%%%&=;;<%7",
"oO+@@@@@@+ooOO@@##$#$@@$#$@$$$$#@#$%%$$%*$2<uuuuiuruuqrq85<q:55<452<<555255<255quuuurj:>:<::;;;;;;=&=&=;=&%%%&#$%&&=%&=%%%;;;&#,",
"@O$@@@@@@$OXOO@@$@@O$$@$$$#$$$$@$$$%%%%&%%,;<dsuuuqruyq555572<5<<<<<45855<55257q7iui2u;><<:;;;5:,;====;=&&%%%%%%%&;=;=%%;%%==$$,",
"%OO@@@@$$@$$@##$$@@$%%$%$$$$@$%%$$$%$$$$=;4<,<7q7855q8755q22<<;;442<,4<455755<5q7rd52u;*<2<:;;;,;;;=;=&=&&&%%%%%%%=&==;&%%%%$$&;",
"488yddddiuuyrudjddrrusyydryuusddffglqqqyyuusyussusuuissuqqqq84;==5uqyruiusdq5q785:227i2*%;:;=;;;==;;;&&=%%;455;qq55555qq4<545555",
"q<<;><<55<;;=;52;<55uu<5<58<<25555qrqqrigcvljjgjjjjgiuqqqu55yyq<4=<55<uu875555fgffddjflgdlfuyyuirqqdfgs5<=;;4uyuu5;quu<<:;:&drqq",
"2<2<<525555<<52<2<q2id555555q755q75qqqqqruuuuuuuuuuurrrruuq5q2<4<%%$%&&%%==;=&&=;;<yjxlr775744q4<,<,;,2<;;<;:2<<5<<255q5<>2qqq5<",
"<<<5<>55555742<22<22ddq75q5555755725555quuuuiururruuuuuuuqr575<;8%%%$=&%&=;;;;;<<4<<275<;;<;;<<2,;;,:=<;:8q24<55<5<5qq55<55qqr55",
"<<5<;2<552558<5<<<<<;pq75555q555522555q5ruuuuuuurrrurruurqqq55527&%;&%%&%;;;;==;::;;:<;;5::;;;<<<,;;<;;:;58<qqq<<525555<<5qurq52",
"<<<55555<<<55<5<2<5qfdqq55q7555555<55527qqquuuruuupiuuuiqrqq555uq%=;=&=$%;:;;=;;;;<::;;;;===;;,,,,;<;;;;;5q<555u5555q52<57qqpq2<",
"<<55quq555q2q7q5555qddqq577qq7qq7257q575575rruuurruuurqurrqqq55uq=&=;;==&&;;===;;;;;;;;;;;;;;;=,,,;,:;;;;=q5q775<55555<<5qqqq5<2",
"><<<<;5<<5q55qqqq5<5ij5557qr7q5qq557qqq755q<urruuuuuurqurrqqrq7iq=====&===$;&=,<,;;;;;;;;;;==;;;,<;<,;;;&;qq5552555552<5q5q5qqq2",
"<q5<<<25qqrqqqqqqq55q555555qqq55525qq5555qqquurupruuurqqqrquq55d8%=;=%%&=%;,;=;;===;;;=;;=&&=;;,,<;,,;;;;=q255q5555q25555q9qqq55",
"<25;<<25qqqqqqqqqququ8<<55555555q7552752q57quuuuuuuuuuqrqqqqq55u5&&&&%%=%&=$==&&==&=&;==&&%;=;;:2<;;:;;;;=85q5555555<5555qqu525<",
"<<55555qq55qqqrqqq757q5255555525q55785555555quuuuuuuururruqqqq<q<%&&=&%$%%==&&=;=;==&;===&%&&=;%2<:,<:;;=;y7rqpuq55<<52<qqq>252<",
"<55522qq<qqq5qqquqq7<u75555q57<5557585q555555uuuuuiiururqqqqqq2u4%%%=%%%$%%%%&;&;===;;&%&&&==;;;<;;,<<<;;;q5uqrqq5<<<255qqq2<2<<",
"=5555qqqqquriuuurudq5y55q5qq<5<5q5555555qqq755ruiuuuprurqqqqq55u5%%%&%&%;%&%%&=;;;==<;;;===&===;;;;:<<,;,<q5qqrqq5<5<<5qqqq<55<<",
"55555q5urqqqrrurqrruqd5qq555<2<52<55555q755qqruuuuuuuuurrrrq555i5&%====;;&&&=&==&&&;5;:=;=&========;;,;;;;rqqqqqq52<5<5qqq2<q555",
"25555q55qqqqrrrqqrrqqf5q5555<;<<2255555qq755qqruuuuuuuuqrr57555i8&=;======;%%&=%&&&=;;;;;==&=;;;;=;;,<,;=;r2uqqqq55<;25qqq2<rq55",
"ddqqqqqqqqrqqquqqqqqqjuq7qq5q<q<<<q7555qqq5555rruuuuuuurruqqq55p8=;==&=%%=&&%&%=&===;;;;;<&==;=;;;;,2:;;=;uqqqqqq555<5qqq555q55q",
"qqruuurrqqqqqrqqqqqqqf7qqqqq7q5555<5555qqqq575;ruuuuuuuuuuqq7qqdr;;;;==%%%&%%%%=&;;==;:;;;;<;;;;;;;;2;;;=;ruqqq52<2555qqq255q5qq",
"5qqqqqqrqqq9qqrqqqqr5u5qqqq7555<<<2<5<555q5557quuuuurrqruuqqquqdr;,;;==&%%%%%%&==;;=;;<,;;;;;;;=;%,;;=;=&;qrqqq5qq55q555q555rrq5",
"q5qqqq5rrqqqqrqqrqqq;5;qqq7q5qqq<<<<<<2555577qquduuu>uuuuurrqpqfu;5:;;&%%=%&%;&&=;;;;;=;=;====&;;;;;;===;=55uqqqqqrq5555<55qqq55",
"55qqrqqqrqqq5rrqrqq;%<=<q555qqqq555<<55q555<55qdduuuuuirurrrruqjd:;;;&;=&%%&&;=&=;;;;;=;==&==;;<,;;;;===&%<;qqqq5qqq5552<2<5qq<5",
"525<q55525225<5552===,==;<55uqqq5qq5<5qq55555qquuuuiuiupuqrqrrrlu;;==;===%&===;=&;;;;<==&==;;<2;,:;;;;:<&&<=;rquuqq55555555q5q55",
"udduiuuiuruqqrruu7qqqyq858quujcfffdfjdddduiidjdjjxzzzzxzjdzjjjdfi77555;=&%===;===%%%$$$%%&&=;,;;;;;;;;;&=<8<;;5255555555555qqqdu"
};
