/* XPM */
static char *_aefa2405367412e860935e3b0b697f9zmYZqaELqclicNP1[] = {
/* columns rows colors chars-per-pixel */
"16 16 111 2 ",
"   c #F4C78C",
".  c #F3C68B",
"X  c #F1C489",
"o  c #F8CB90",
"O  c #FBCE93",
"+  c #F5C88D",
"@  c #F7CA8F",
"#  c #FACD92",
"$  c #E6B97E",
"%  c #E4B77C",
"&  c #E3B67B",
"*  c #E5B87D",
"=  c #E9BC81",
"-  c #EDC085",
";  c #F0C388",
":  c #EFC287",
">  c #F2C58A",
",  c #E3B57A",
"<  c #DFB176",
"1  c #DAAC71",
"2  c #DBAD72",
"3  c #E4B67B",
"4  c #E5B77C",
"5  c #E6B87D",
"6  c #E9BB80",
"7  c #EABC81",
"8  c #E7B97E",
"9  c #E0B277",
"0  c #D9AB70",
"q  c #D8AA6F",
"w  c #DCAE73",
"e  c #DDAF74",
"r  c #D6A86D",
"t  c #E2B479",
"y  c #E6B57B",
"u  c #DFAE74",
"i  c #D8A76D",
"p  c #DCAB71",
"a  c #DEAD73",
"s  c #DBAA70",
"d  c #D9A86E",
"f  c #E3B278",
"g  c #E7B67C",
"h  c #E2B177",
"j  c #E1B076",
"k  c #E5B47A",
"l  c #E8B77D",
"z  c #ECBB81",
"x  c #F0BF85",
"c  c #F0C287",
"v  c #E0AF75",
"b  c #EFBE84",
"n  c #E9B87E",
"m  c #EAB97F",
"M  c #EEBD83",
"N  c #EEC085",
"B  c #E4B379",
"V  c #DDAC72",
"C  c #EBBA80",
"Z  c #EDBF84",
"A  c #F1C086",
"S  c #F5C78C",
"D  c #F8C78D",
"F  c #F4C68B",
"G  c #F1C388",
"H  c #F3C58A",
"J  c #F7C98E",
"K  c #FACC91",
"L  c #F6C98E",
"P  c #F8CA8F",
"I  c #FDCF94",
"U  c #FCCF94",
"Y  c #F9CC91",
"T  c #F7CD91",
"R  c #F8CE92",
"E  c #F9CF93",
"W  c #FFD297",
"Q  c #FCD296",
"!  c #FDD095",
"~  c #FBD195",
"^  c #F7CF92",
"/  c #F3C98D",
"(  c #F3CB8E",
")  c #F5CB8F",
"_  c #F2C88C",
"`  c #F1C98C",
"'  c #F4CA8E",
"]  c #F6CE91",
"[  c #F5CD90",
"{  c #F4CE90",
"}  c #E6BE81",
"|  c #E6C082",
" . c #E9C184",
".. c #EAC486",
"X. c #ECC487",
"o. c #EDC789",
"O. c #F2CC8E",
"+. c #F2CE90",
"@. c #E9C385",
"#. c #E7C385",
"$. c #EAC688",
"%. c #EFC98B",
"&. c #EFCB8D",
"*. c #F5CF91",
"=. c #F3CF91",
"-. c #F6D092",
";. c #F4D092",
":. c #F7D193",
">. c #F3CD8F",
",. c #F0CC8E",
"<. c white",
/* pixels */
"    . X X . o O + +     + @ # O ",
"$ % & & * = - ; ; : : : ; >   + ",
", < 1 2 < 3 4 3 3 , , , 3 5 6 7 ",
"8 9 0 q w < e 1 r r r q 1 e 9 t ",
"y u i i p u a s i i d s u f g 8 ",
"h a s p j y g g h f f k l z x c ",
"v u a u f l z b n n l n m z M N ",
"p p p s p v k n l g y k B k y 4 ",
"i d s V v h B k C f p u n x b 6 ",
"B , y 5 m 7 M Z A 6 y 8 A S D F ",
"G X H . S + J @ K L F   P # I U ",
"Y T # R O E O E W Q ! E Y T O ~ ",
"R ^ R ^ R ^ R ^ / ( ) ( _ ` ' ] ",
"[ { [ { [ { [ { } |  ...X.o.` O.",
"{ +.{ +.{ +.{ +.@.#...$.%.&.O.O.",
"*.=.*.=.-.;.-.;.:.=.>.+.-.;.{ ,."
};
