/* XPM */
static char *_59a00dd1aed4014a4d6814f0ac2d1d9bRWTL2aNLiiaE4ZA[] = {
/* columns rows colors chars-per-pixel */
"128 128 91 1 ",
"  c #2F2D2D",
". c #31302E",
"X c #2F2E32",
"o c #302F32",
"O c #353435",
"+ c #383636",
"@ c #393837",
"# c #36363A",
"$ c #383739",
"% c #37383C",
"& c #3A3A3D",
"* c #413F3D",
"= c #3E403F",
"- c #41413F",
"; c #343640",
": c #363942",
"> c #3D3D42",
", c #3D3F49",
"< c #403F44",
"1 c #403F48",
"2 c #3F4045",
"3 c #3F4149",
"4 c #3A4050",
"5 c #414246",
"6 c #43454B",
"7 c #46484E",
"8 c #484A4E",
"9 c #434550",
"0 c #434752",
"q c #444650",
"w c #454750",
"e c #484750",
"r c #464853",
"t c #464953",
"y c #474B52",
"u c #464954",
"i c #484B53",
"p c #4A4C53",
"a c #494954",
"s c #4B4B57",
"d c #494C54",
"f c #4A4C54",
"g c #494D57",
"h c #474B58",
"j c #494A59",
"k c #4C4F58",
"l c #4C4D5B",
"z c #4D4E5B",
"x c #4B4F5C",
"c c #4D5156",
"v c #4D5059",
"b c #4C505A",
"n c #4D525A",
"m c #4E525A",
"M c #4B505D",
"N c #4F525D",
"B c #4F545F",
"V c #505257",
"C c #51545D",
"Z c #51545E",
"A c #53585E",
"S c #4E5361",
"D c #4E5461",
"F c #4F5563",
"G c #505161",
"H c #525662",
"J c #535763",
"K c #525863",
"L c #555964",
"P c #555966",
"I c #595D66",
"U c #535768",
"Y c #565B6A",
"T c #585C6A",
"R c #5A5E6A",
"E c #575E71",
"W c #585E70",
"Q c #5C6167",
"! c #5D616C",
"~ c #5D6371",
"^ c #5E6578",
"/ c #61656E",
"( c #616573",
") c #636975",
"_ c #686D77",
"` c #606578",
"' c #646979",
"] c #686E7C",
"[ c #6C717D",
"{ c #686E82",
"} c #687081",
/* pixels */
"6>>>>$>6tO&65t66:>%6tt66>6t%ttw66aSdNl66>l>666>dlH,66>36%66btd666666><6l36>>36awut9lx:>:663369M3>utju66uj6699,36669lwu36tt339:>#",
"666>>>6t5%5>6657666>6566t6%6w6t6abbNKii>7i6d6366t666>a7666666it67p66666N666tii7ddttH6>6>6tudtNti7dudwlllNNlt>6wjGlGaja6ll>>563#&",
"a>>>6656>>>66i>52&35d%527>66t66addbt66i567C556dta6>6O&5366t77iipddtttpiB67idtlilbdbH6>i>76bbdNPt7iiidHNNaPbldtbNHTbtl6Naalt5%>+%",
"56>%565b6>665i5p$l>5666t5tddi7ddC7i6di7ibt6$65dl665>>#>>>6ditii76pittt5SddddbldibCH577il7dd67bb6bltllHiil~TP!!Pdb<856aKaiG>&5>85",
"aw>66%id7>5i>76dd>57537i35c76bbHd7b7bd6bd5625$5l5d666$2>6677td67666t676KddiCbibibC6&iitci6dbPbbidblpbUiCIit667au>5657bb566$>>>75",
"t>6wllH3d5ii6t2pt$5c&$52676d6ibCtdblip57i6$6>677t7i67756556d66666idl6i6Cbdldi6laa65ai55i766pdpCid5bllH6bii66677b5767i65>%5>6&i68",
"alluawN666i662idl$$>66>55p5773776&557p675>5666t6pd77666p56676567iti66>5lw656dia6i5>6d56i666i67ii&7VHaC6l686667#$&$<6c65&+65&5p86",
"juauuUi&db76l>tClO577756id6536p66557t5566#6375lid666wi75t667p66667666p5N656t56a&&55ii>56>666dbNpiicClY6p768ipi$55766>655$>>5cl6l",
"dua>wl67iT765$d57&&6a666bp>5$6&755itd5667t>6676pl5iit6666666l666i7i6667l666>>>$$5%&5$&>>5>&66NtbNl6aGt666iCd7656565&6652>>66d5p7",
"bb>66t%2t62588d85&6i7i67b566>7865l766llib666566d6ttt6w6665666566tl6a666u>%56t%%>>36>%>%&>>6l3dd6j66wK>6667l66il56555665O55575Cpp",
"PdCKHNCHHTHH!HTHHCHHbPT(TCH!!~!!!TPPTCCY!'AH~!T!IPA((TI(PIPTTT!I!PTHT!T(T!!'II/!!!!!TT!!/!T~'(!((I(__()/tCbHpPII6CPCI765!pCCH!T!",
">t3>9:99NuxlMl66366t6tt6dKKllHNYNud66363/V88dp6l68CHHCC8i@&@55&6&776pb668cI)!]!C76p55!878CA!VV6pcCAdVCAAO%>36576677t6577p7cd6757",
"6>>>d666td665p2766it7idY~KNllllGtNlildu>_H7lcc765d7tHCcC<$#3&635>55>t657KbKK~P8@&66>pd67Cbcbddidiidpb67A>36>66ittdltd35277c7p7p7",
"&227&3&>>3>>>35ppbiCCbPCHPbttll>56$wHHt:_bHlti566666d56iO%6>36tt677>7bt7tbdb^dC6>>65>td6dblddtNNNd6dt6dV:3>6tbd5bNtdd6665p78pccp",
"&555p575>6366i76777llb'lt6565>666>>6>>OO[i6di665667db66O&>tu%>tt>b&36DctYt7YKM#O>>l6>66Nd6tduHd665a66>6C:66tl6tHd76763>7755pcpp5",
"7578pp658t656t6i6iCdP!b65>66566>57>%5OOO/cd7556t6d67b62O56w>>>36>6>bd6BdHtNKdd%3>%latd6ddNPYKd>>>a6367dV:>676ll765>&&@56788c7cc8",
"668c77766p5tpdHdC56%&5>>66t66656i>5$>O#O'bC6>>6ptptt566O&33O %%33636&66tNpd7ll3:>6w36NNbNNtt>666wwtu6d6C#>udtN66:%&>557666ccbpC7",
"7plpb5Apb68p66t535>556d>5>6w6t<a<O$$&%%%!6di>6655ptd666%&>%OO&>t7>>&677ditNtPH>63tw66x66i6636tttlBdi66ic%6l>a>6>66&7bbp7&5pcHAp8",
"5bdp8dpd77pp75t3>5>6>$>>>5<w666$OO$$%%>:/ld6>>>26>6667d6>%O$$>tb>6653d66l6lNYNH6u>66w6w555>366t7dMMd67lA:t66t:37t>7dp7657pi725p8",
"2pdp6cpbtbd766%%##>>:u>666uuwj OO#%%>%%3_l666d%&36t%6bti&$>>5lil>6>6bCcb25BCHHi7tdla6>66b7id7tBdHtla8dC/>l3t>%66t5i56t6cpt5d67pb",
"9963d33333>3,%%33%%9,3,:9333%XOOOOO:;#:4'5a66%>2>6766bd6+>>ibpcVd8ccP!I7pcpcCI655ibbHClCV!AcAHpHHic8bC/)3tlt66t6uN636766566t%6l6",
"ppdp67&33556p565565&O>>>>6%O>>u6t73676>#>3&>63363%>3>>>>%>6:>3>5552525>O%>$>%>>5>663>3>6675$55%%%%55&&&&:%&3O OOO#>#%5%>:%O366%%",
"!HcVJCCCHCVHclA86d7>>b6>N756>aYPbAHITA6566td6t63u>wl336l6>V:36lt66dl66>:6u>>6696laNa656ddCtt736>>,66%>>25p8>5O%3$5i6l<l6>6>Vi>6t",
"bd77HbHPPlHblCi7dd7Ot3t>T3%u9NUH!Pdb7&>56>6>336dlMttt696>3C>656dtd7d66%>665<6wwwt6i7636NdCw66d>236w+$%725>5&%$6$>6i6<C6>tl6i$6>6",
"76d7PPHKNNbbb657p5%%>>>Mu>3:NKTP~Tii6&5>336366DldlNlbb66t>7>6<67i66>O$6565&<>6iaaa7l6ialiP6N6667775&26262272&%65&al6aw56le6563>t",
"ttBDP!~Hbbdbld66&6O3>66d>66ubTCHHbi565tbd63lNt7556lHVC6>>%6>>55>55>%6>><<$&>%6566ibCCC7bC66t76it6655>5&66655$%><al66a%>walalH6:>",
"HP~!C56dtHYKtN6&>O>>l6tt66tNdTdH!Yddd76666ul6tu>5lp6Td53%O&6>&567O&&56>5>&>&556l6lC7l8>lH66t6bd65t5225>>666&$&666a6a66l6w6wd5i5%",
"CTidd<72iCPKdtO5&553%ullDNw6HT6HH~lYbdt6666666>6NddHb65$%%5>:3>6<>6<>&<6&66<6666Nlb6b66CP6aw66766&>26&56p75&6>tt6ila6>d66atd6t56",
"%wdb756t77&b&.566&l>6lNbdddtTtHlP~l66HidbbditatwbPbH6656>%7>:56i$75$i6555>655dcbdHibi5b8P$63d>66t66t36a6535>>>5tt6t>>66e6l>55$%>",
"5d>$O>&6iC55OO$&%6i6tdH36566C~dCC~6GN6dPp666lidbBHi27&OO>>6:366$l&&5<6>i5<6$7b6lNNi65tVH7>t65t66itp766p6366>5>>5t66>6iw6lw966>%>",
"6i+&$%>666&35&5&376>Hb>aK636IC8bH~a86iidKClCIlCHCC7ip8&OO$5:665>%&<>6>6>556>7bYidHd55pb766d&6,6w7u6636u6>:t:>>>>>6>6w66w6>36>:%w",
"ap67<86>666%55&5dlibc75il6bPcCCI!CIcI!dH8dAAV8cClCVV85$$$6*:>%%>&>%>6>6$>>666N6wlt$>6t6666663>:96>:3#>:>>,%:3>%969uu,39,,,9i%>6>",
"uduttuK>>t9uu36%>%6t%wu6tD~93wtu33%>::XO%%###O%>%%>%6>%%%>3665i6566666iii5666llVC865656p6pt66i/86bHAd87CCpPcHcHPI8H!H6AbHbd%idd6",
"lDDl6K6%6ut666O%%d63>w6>6,#>9ddb6>%>>>%$O#%%#6665>55>%>6>6635675566666ed6t7c6ilVH665667t7i6Nt6!&tdd77ptbcCBcP6KH7bPi6bHKutauDl6%",
"NNtdN66ttllS>OO7t5636>33lt%uN6d563535OO$$>&5565&565<65553>66676566666i66t5iit7ilT6t576767766>3I7cd6bddbB7dBt3lb6lKNtbMK63lulux$5",
"KNdY6thw6999O$$6#>3>5%O>6%336&63>55bO&53%&5866>56>7p56765a6676t666t66ti6dlil8bbHY6655676566it>(td677tb7DdY36dttuHYMSMUlSj6lNxj%5",
"NKYu6lx>39O#&36O2%>>3d6>>#6t%5>>36&$6$62$>>65$&>666di7666766a6t577ai6ididdddHClCY867656677i6dtIbdtdBt3tt566ddl6NHTH9SDll>xNKDu36",
"TUN#udO%>O>%>%O6%&%>36&6$>6d>p3765%$%35$$<555&&>6676ibii67t766>6w6ai7665llbCbdiP~5555t66t7i6N:!BbdHDddp7cB6lHtdNHultwlYbNuD6t666",
"Kl#6l#>>36#>&O22&>35b2>&%3Nd6b6$O$6%6>>5>55<5&$>>>66666677>6667t76ilt66tdbPCiial!766656ti77dd3_tKbt&63&5DdN6w66dKD6huU'llNYdb7d6",
"u3>>%OO>>>#36>6>&>6H6t>%t&d6bl%$6&>&&5i6b75665667>5655556565pNd6dddid5tabHC6itdbC56766p67tpt6%Tddl$766lbtdu6w6aN6>u6SYTl6Hlt6ib6",
">&>O#O#>$3%d7>7%66665>6>>6dtHP3&%6557lid8pp7it66iH666665667p65b6Hblbi6tblH67ladCb6td56i66t6dO$Tl67tdd7tt6ldl6d66t63tl!tN2!7d66b6",
">6>%#>tO>2566>%66565ddd%>6Nddl3$7w56>d76atiddi666677it766555567ibPiiibllCCatllCKd67657d76t7p>>T8&25655656di66t6lb67lbKPc5p7576p8",
"TPNHH~bCPPPHTPHICTIT~HHHTUTT()HPPH!!!((~'_(/(!~!!!!!T!!IIIHtlltNbH6H6ClJPHwtdKPK6bblblddd67766bO6>6>6663t>666%3w3taMtd6t$tbTTT!T",
"%>6>66669luK6>w>,>666#>:>>>6>>6<6%5lHblHdG>Na66&p66565Cbd73wdd36K65d5667>2636d6t6t7dddtli656166::::>%:,:>>396h6>w>66%6>6>6a7B36t",
"$>%33666wlN6u66>6>56>%6%6>>>>>O566tCdddH5#5w56l>7it65tK6t7t3l6ddtt6>685256t7d675il6Npltl6656d6%>$<:%63>>66>t>65>6566&%wtldtPp6tu",
"$6&55676alYw6>6>>>>>:#$%6t6>%%53d6il6lil%>lt66l$66635N635NCtlUiddlapiilbdlbiaddiPl6N65apdl6d65&565>>t736ta566C6>556>>576HtiPdt7d",
">i55666tGNl66>56>6>6O6566>i$>>i6illNddPO666>6>t6l56%6&66N6bdbNbldt6ddpPdCNdbibb6dbCdptib6YdG66566567733>6756l8l55>i&$3CH>$7Cd6tN",
">6b56p7lwwal>6>6666$O>lt%>>6566dt6alN63>6>t6>tN6>>u>63ta6>d6d76ii6i7CCidb6l66i7d6lllbddCY6>l6wtibl6di<6>66d6iVC+>O&6$>%%&5tC7tdd",
"6t>>56dt6l66%$>>665O$5d%%>>>56iituNdi&>>6656NlNt36tStlNa3>dabb7adNalHllbbdldbblbpdbbHCPCl<i>6i6e77pd7655<>>6a66$$>>&@566%67p7ptK",
"6>$66ldi7a66>56666>6>bbO6>5%67dH6a6i56<>6dt6b6a6::>3dtu&>6KtlGllaTHUNaClGllpCNHCCCHCwGNla6illdiiilbii655565d5>5>$&$256675>68ppD7",
"5<556p7pba56>6tptta6a6>>w>66ddNeli65&6&6id7dtata>66>365666Y6YNaUPTbHPtlCldlYUYTYHl6lNda56lKl&66>666ia656566i>>>%>&$258d666i8c6p5",
"p857p878YN5a6adidHl&&5565668dClHip>6>i5pbb6Cl65dt%>666%6>66tKiNHKGNKKltwta3>>>5>awaa66>11w66t6>$%>%>%>t323tt666&$56t686lbi6VcC76",
"p85ddCVVCVV66llcCP6&5pi56cdlVd65p655568dAl6cCAbC636u66%>>>l3w9SY^SYWdw66uw6::w:>%w6%#>#%>#>>>>##>>##%:%#>%666>66&675dC8cHCpQ!8Cc",
">&$6$5&&>&2556c63>6566%&O%$%>5$$&&6>&&$&O%&%5&$$#>>566>>5:>>O>$$>w%6>&6>>$6666$%O%>%t666>%%%>%65$%$>5$%%.>&O65+i$725865555556555",
"556658i55i677Cbu3dSDY6l3%366t3>&&7766666757665>%%lHtdl66d6l666666i66db656665%&>666<6<aab766ddtw6t6b556>&O>$>>6<6>67785888p7lp77B",
"86686578865cpAd6tNlbN2w:>>6dt5&56578766778766763:ltbit6i66t>6w666>6>6>a6aa66wiw6a>>i6666667t6ut%66656>2t6>>6w<5l67ccp77pcbCpddpb",
"8p78c6766d8cpH6idN6Np6%66t66$2&55766578768767636>KCdaN6>665666>%$%>&%>>%65a>5>>6l566aladdddldl63t66>#6>66>:>>6C66tp7c8pccbc6cccC",
"cd86d6667ppcCP6H>a3ai>55763>575555578pppl7ppp753>C666l67%>66a65>O&&$%6&>3<%$%56>65Gwa67iN~llaa66>666uul>>%36>666tpbcp8ccpCp8bcbC",
"7l6655686p7C!Abdt>t65665666>57pd56777pc7bC55656>6l$>66>66%w67>>6>6&&6&>>&$>5>566636ltwlbbSwNdu6>>66666#%:>>tll6p3dp7idbdcbcpccCK",
"8568p557dii!pcdNttt6atta666626267cc6778875p66i6366$>6i5>>6>6l>%:&>>&25%>$>>757762t766aNNdlSaaNG>>w66363>>363Nb3i%d6dp8cHJJ8bbCPY",
"c557725i7bHbcpdt>76tb7b75t67>75p8p7pp7cpp76p666>33%36i6$<>5w65O>5>>2&c6&>56666i55idwNBibK^Gl6dw6w>>>t>>%666>6>$5367pcbH!T7pAACY6",
"55pc57dTbCAp7bcl6itdHCl6t6dt66525255=p87787567d:>O%6>55e6t6N<$6665>56i%$26>575b567dSdNKKluYwt66>%>6lw6%5t6>a:>68>b7pAP7btdcCYdt6",
"5ppp76p8ACBC6pC7666dNb6H6bi3>>577Cpp7c8768p7cdi766666C>565i76<i65677i655565557p8bcNHdltNK6wla66>56l6<>>waOi5555866pbbKptNtNKidd5",
"787755p5cAcctb55t6atd7c2>>5%565cpcC8ppccC757pp7566d56776588ipidp68685766dpp5V8CplCUCbHCbttt>%$$66666657>&566666l667pY6636>htd663",
"8pc8c5787pc7cb6277c2bp75b87Ab775$=T&2678p&655675232>3222372363t3>>>2>6>36653>6u6ud66t69t%6i>6666>5>666>a7l7a6556586685587c8i66Ci",
"575757c7pp77cA&66c5cc8&pCbpP787&55&556555p855b566767667ttc786>526>>56b7a6i53>66>3656tdud6666i6a3O55%675ili65<65556888665&55665bd",
"6p58258p88p7C756cp=6A58ccAiAp5=25555555p6675677575p7755c8c5pi6&$$d58766>3566666>t567blH7756b6b66$65766ii65686i656llbii766566656d",
"p6777p7c7c78C&5755cb77cccC762855==5555677p756&567788p667tA7pp252>6p65<&56>>3656t6666i565>667Hlt66pi8>5i656pi6&55p6i6p6i756>5>5>d",
"7777i&pA775c7&875p7cpcbbPp7587555$&56686655665677p5pc787c8p875765&>5&>&&56566%>666656>>65>66lat6w66655ip55&&&55bp866656678<766tl",
"576i555pc57A6255ccApp7ccp7777655==55576657678867pp7ppbpippc876d5%65&>&5655%6d656666t6>&556dlHd66>a65>5&t65l5>76>5&&>68&6<6d675>t",
"7i63>dC777cC67866pbbCpbc67865275&567777667576566767p7p7pCcc7p5l5665566666d5ttlaiidt37tadHPi886ld><&>55666%&5dCi%&56idi5666l8i6>d",
"i6B6&5CC58p7&&778cbpcpbc7pb5758&&562785565665777777p7c8ppcppp666>566iidlC56tidd6d5&5%556l8i6lp>>+55>>6>%6i5ldd&5i67l66ll6ilcdptb",
"7tt>&p686p625268cc7b58pp77c77655566756p66777767777666675p8ccp26&$%5i85666ipdd6i>65>6<6655d$i766+>5>55656>l5565&66667H6iCCV868766",
">>>O2d5p57672267pd7b65667tB6622&>6>666676777656665566625727dt2>&56676p555iiCd655656<>55>65>d>6665666C6>56i5+$66>5ibH5l555<i5666d",
"(!)I('')!!!!I!/('//_/!!(/((/)Q!!!/((!//!//('(!!////!!Q!//(!bdd5t6l6666%b5bbH36l6a66d666l6C6CtH>H6dtHT6idbbl>db6bB>6676>6i67IIIP!",
"%55&<56666668668c7778557876cCHbVCHAAdiVVAT!8bVCH!pppi7ddbVCtCd7dbC5&5O$O>%%%%66&6%6>66<6665&iltili6t%56i$<>6l6i65>66663566d6666i",
"%55<5i666666676pcb>77676677ip58cCCblipdHCN76aNdHK8pi66t6dc7tpCbl7>56>$%65%>565<6>>55d66e<%66diwlp6665586$&5tC<t656766i6576da6laa",
"d655:U6il656ttd3656766666p776778bNaNadddblt6ladxN7i7a6ld36Nid56655>6+5>b&%66iC66&>566dal5566aaibp8a65585%>656a6666ttlli6i6bwiuwt",
"t>5>wiailda6a6666ibtdadN5663766idl>6l6NSSHwtlNNT677t66l>55662d636657>t67>66i<5>6%566ii6<>666i66bC8ii55i6&>ei66i658776dltd6b66tua",
">%>66wK6K6666>>66i7t666656566667la66aillYa6NSMYt6td666u63ittiii65665tb6%3>6&6>>>558C6d5>5&56666Cl886l5lp&>6w66i66iii76Cbi7N6wwa6",
">%6wlawN>::>%>>66pititt6tt6766idN66duHKKS9jNUTN66lal653>37bt6655766l7b>>>i&6<$&b55l566>>6556766lipbi7686O66656555ii6pt7tibCtw6l6",
">>a6>5>OO%%%>>36t6666ttt7t66pHNia6aClH6xwdSYbtd6666dt6>>%&555566l>$566&><%>%&>28566556&5562556pNblp86555><<676666ie666iittd>6666",
"%66%>6>%>>U6663%676i7tli6656tNlltuuaKNuua6Nbbt6636al%>>6#5t6767b&%>>%>>5>6t&>>55iid&656b5767668NbclV6566&>6i6656666d557iipN56ut6",
"uw>a>%63>>>66>9w>>6a6iwaN676wa6N6w6N966366N>3t336tt%>3#Ottt6666%:>6>5t555KO&6>57567>55555d6ii77bCl6666585666i76i6665>655>%l6566a",
"jtw96%:%>6663,:#>%6>>>%>6>3>6lu9,9ul>,666dl3>9>3uu$#3>OO>tw63t#::3:>6&666&$&558566>5b6666p6i7dddK6888856$5l>e6ie66i65%6556b6c666",
">>53>%%%O$&>&$%>656>>:&#6>6%OO$>3&%36>&&>%6>$>>$&%>%%$%%$$O%>&5tO&$66di6V<58556%O$565&>&55O$>O6i5&&656&>$O&<&565>>>t53>6%55%>>55",
"lHC%&%%666556566tNH6a>66tul6>>5p6d667>t6666>ttClt736633366767cPA5@-TSdHCCli5p66O55>3>6%>6>>6>%ti6idCit>66&>>5>6557idt66666>63d66",
"dTc6%>566t6dt77b6%>i>#>6lhl6936N>66b6i3d$#%3tw65>663>a:>>t6idP76O7&KNTTlH6&>6O$>%>&><<655&6%&>6c&bbCU5555+&557>>67d776d66566idtl",
"(Nc>>tb6t6366667>6$d#33%u6l>6uN:&36d>363>>tul6>53>3i%6>>>39ta6&6$76HbPO6iO5<$$$$%<&6<>>iw>&$>5wb6iHC6555&$56pl6>6i7t76t76t666btt",
">6577&67tdt7dt5776$363dNul3%>9%#%%663>3OO3666>>>>7>5>67t636wui>&588Kli6a>&+>>$$<><6<>556>e&<6<668V6766><5&<6885idlCd6677bwttddl6",
"Ndbl6636tdl777t&6t6tDl636663w#%>>%66>%366D6%#&tdbld666di53369>>6566N7>&$$O>>%$>6655>6665d<i6i>l6bl8l66&556>5i5l6pt5655i5766wlblt",
"bi5Nu676tdtt76&2>&67d6t>u67tO3>>&2>$666utt>>d6btt5666udHt76t333t66d6>8+$%>>$<>6><&>6586666i56il6Cb<8i65>8&>&6d6t756655d6666wtb6t",
"b>23>ttld6t32&>3&2736362tp33>>>36d$>%53>l%&>665uBtldl6l66636%>66>b7D65$&>6$%w5655t57>i5dl6&567i6C8l8i556p6>56l66i666p7t666ttdd66",
"C56D66lll273>25266>2666ib66Ct5>6Nt6>6d%OO%7&62dN%%6%5%>66356>666676M>$>>6>>66awt65>55t6C6>6768d6di8dl55655>666i6t66777dtd7677itH",
"T7pt76t6p>6>525667p66KdK75t7t56N6$>&B>p&766dd6td5%66356566diddbNdbCh,366K>6a656%555i6ti756756id6aC68i65565&6iii6i67t666p6dddidbd",
"bpcBi337>5667c7t6c5ib7cNp2bbdlib66&775pb7dcbpc762265557p676dHTT(IA!M:al6>:>l%>%$%t>6t666>56>>366ib65l65li&$<766i667d666ibdbbdHti",
",66>>%::%>:%3%wau969u66t66u66u3h%o#O6#6O#%>:%%::,>%$<56666533>>367d88l8lbbC5565666876p7p75778c6H<i6d565el7i&6<65bN6elia6bllG6ida",
">66>>6>6:6>66>tb6:6w%66l66a%>6duO#O%O$3&>26%36>555>6<665i66655666i67866llbC66566677t556di6t6656d665666556666H>877iiaeeilla66leei",
"6w6>36666u:tt6tt7l>>#7556aN6N6wlO$O#&2>265>666<<6li65566756556666i8iiibdbtd56376t6i667db667t7icb66666i6655i6latb56iili5ai6aaw>ii",
"6666666656,atldt6t56$>6>N66t>d6t#%&$567>2%>6566666&667ii75666i6766pipCp8llT6656666666676idi76dda6it666665<aiGGlaaii6la66iiaaa6ai",
"66u>>66w6>663>6666a6>3t6dt>3d67d%5>$5765%665li68p6686668l6777867pibVdCiCCdT6556665i67dp6bbd77dpt566i6d6e6adCll<566aNl6>wdlGlill7",
"6N66>u6w6ta666b76tt66tt66td67ddb>>&3>56$%%5d77dl78p86ipib6iiilppllVCCiHladY666656>67Ntddb666idCHillid6wl6lGUiw6<%6wal5ailPdaiNda",
"6t66wlllll66uNt66tN6%&t7t6tbCd6C%$&56>&%&<56iiiiiiliil8568p8l8ppi8iVCClilYT55666676676j565d66dca56eiala6CNdi6666<i56<aiiit66dd67",
"66S6llNKEalalN6tlal6&6ltpH66i7lB>5&56>5&&5576656368666ilii6blllbibbHHadipdC>65666666iil&5d776b8b6iNaldbKad655656CdliaddiC66dtid7",
"at6tMUTK66lNTt6666#%576tHdtwwdlB$676><5666866666566677b77lCdbl6plbCNH5ddlBN66665t56ttd6$d556bdCHalaalKHii>6%6566>66tld6t666ttidl",
"SD6Yllll66lp66#6>%56>t&566lwaaaHtid666a66868ii6p66686i88pliNllbplVbNbibdlHl66t66t6>t5a$6%6a6&6dltawtlHb66>>>6616wlw6w66t6666t6ti",
"{({!`~(~YTHPYlY~HPTPCH!!!~'!)(()!!!(!P!~!(!(!((!!!!!!!!!(!)}~P!~~())!T((_'T!~!!!_T!T~!bdH!~!T(P'!!_'P_!!T!TTT!T~!~(~(((')((!((H/",
"GSx9>3>3>O#OO%%iCP>td666O%66w3>wl63O$>6>55665>>5aw6ba6pCl66i6&iidpCc672555776>6Cbd5Cii66bt7idi6l868768lHb8i7bbbHbVCACAV8VcCCCHcC",
"S6>>%>66O#OO%>>dN6676>l6%>6wwtltb6>O:%66666t66>llw666tl6667566d>Hbp7i6b6>577i56CBY6u%6w3:66udttN6d667dbNi6idttt6dPtdPBctpiKpbb6C",
"h63%>>:#%%%>6%3tH566atl%w6w6wa66l6>O:66%5Nlt6it6t>>>56i6wl67il6GUd35566>&>556>6Nxl9K96N66uldSwx93uttltNtdltNbNdbdNBHKK3lNK666tuN",
"6>:363$>%:6%>>3HB666t63>7t6w6wdwd52%666>al%il>6Nw6u665at6w6w6aaNN>$$2$6@%53t6%&iwu6ut6N63u6lluN63>>wbdbdbbBNtdbNbBKDbl66>6&6Nttl",
"at>,%$%>>>#%>36Y66ia66%66w6>6al966%%%w6aw6ja6ta6>%%>>66wtwltt66l6%55d6i$>6>wp3#6SlS%6lSd6llDMN>#%%>3wKbbDdNattt7blt6d6&5pt3tD66Y",
"6:##>$%%>%66>>6>t6w66%6666667ta66d$%>>6atu33>:O%%%>N>66ta6dN66wC653567d55>>i6>%KNu#>6tlt6tut>66>36>>63UKt6dtbtBDdd7t67$3357NN6lH",
",>#O6%%>:>66t6#66t6t6%6dt66tdd<666O>65lawlt3>6$:%666>>w6HdC&itaN$O656d&&5366a>%t6&%636%>>t>>>:%>>a69uulxbtNlbtb7tdbt7t3t6tt66>bd",
">3>>>5>t666ww665pi6%5566666idl666%#>>6l6al>>d%%666663$66666diblbtt>687>p7>a6a>>dd>>wMu66t6%>63666u6uxxu>w56d66ttdtt6d666656t6dtP",
">6>6i<>i6a6di66ibi@6688pbdalb766d6&5>6awN5566$6H666>t6t6d6CwHti5t6>>5&55<>d55%>Hl66HNalHdp>5666tdNll36aaa6bd56t665tc6p6t7dTpbNdP",
"5>56&5dlVCbT8C6l6&56d8C7Pl666lclt5d5aCdi5><liili66db666lbiP!aCP75666865ppi6l585AVcbbHCCCbb7pblVb7ilbbNtl>565Cp88ldbKb5$5775bddHC",
">66$&>$%>%&>2%>53>>&>>>>$&&&$&&&>O$$%>>&<6>5>>$&>>>65>$>>>565665ti<&<#<<>&$+>%O6>&>>%%>6>32666>3&35663i7l%5%$O%%>6$765tt%%6t>>66",
"6jw<6>66t566t6666ib5tdl666666566>%551665aw6l56<<66iwi6>666walGaTHNal6%5>tl+36>:33%>6>6d69tu66t6dld66cbCt#&&66>$5i6b>6lll#>>6utpd",
"wiw66<>&6i7776tp7i56576676566d67%5$6666aala56>>>6ii6a5>6waww<66i6il>6l>wit7bO3>b>6>uu6tNb66>t6>iil6pHT(6>5iip75686&66bi666676d6i",
">566>O%5565877ldi8d6566i68566555$5676667wad6>5<a6l6a666a6wal6<>6ea5>i66li66$7565tdltdlNHi5656666687lbi6&&65855c6dp6IbC68i66ilt7K",
"6t6>O>>6777lldpt666566b7ib66656&>6>56tdiiCe><666a6a6iU6alele65i6a>&&66i6>5&5656N566dPHN7t7p5wi6563>6l6a66886c675555bCbH8l&767lb7",
"&65%>>66665555t66676HC665d565>%%>3>566wal6d<>b<656wwai6w<<566e6w>66itUl>6$576%ld36>dl6bCCit65d7667567t&iib8l6i56l77lPlpi665ldtp6",
"565525>53>&>>565666i66665>O>>>>53>5556lNl6i&<66666aeae66666ew666i56ii>%56>6N%>>>636lw65dtbt6i6666567<585lplbic6lHppHT6ip8656li66",
"6t6752&&6>5>>>5>55665>5$%#%>62$>56556llNN6>$>5>66iaa>e>66i66666656tN$+d6>&<565>>t>6lta6d66566ddbit6t6<5c85i656i8lCVCKi6Cl8l6lii6",
"%&>5>%%>>>>>%>3>>>%5>&26>&%3%>%>6$76bPdP656>65atiai66l%<6d66aaw6i6l$5$6>>5675>6%57tdlNP6t>566iditi766i6766856H66Cldii5ili6l686li",
"$66O>#%>>>&%:%>%>>>>%:%%w%66t>365775636ia&66%$6waG<>>$>66<6G6w6awa$$&666656%65t66667t7$6537&6pipdd75b76c568ilpiVV7bCt$556l7aib6a",
"%%%%%:%%>3%#%>33%%>>>:%%%%63>>96t6t>6>666>#:>56ll:6>>::t6w9w#66w<O$>666>5i5t%%36d66t9t3:36633>>%>6665dN56868CdcVblilP676V65iiddt"
};
