/* XPM */
static char *result[] = {
/* columns rows colors chars-per-pixel */
"16 16 5 1 ",
"  c #F4B41B",
". c #A93B3B",
"X c #E6482E",
"o c #F47E1B",
"O c white",
/* pixels */
" .XX.XXXXXXXXX.o",
"...XXXXXXXXXX...",
"X.XXXX.XXXXXXX.X",
"XXXXX.X.XXXXXXXX",
"XXXXXX.XXXXX.XXX",
"XXXXXXXXXXXXXXXX",
"XXXXXXXXXXXXXXXX",
"XX.XXXXXXXXXXXXX",
"XXXXXXXXXXXXXXXX",
"XXXXXXXXXXX.XXXX",
"XXXXXXXXXX.X.XXX",
"XXXXXXXXXXX.XXXX",
"XXXXXXXXXXXXXXXX",
"X.XXXXXXXXXXXX.X",
"...XXXXX.XXXX...",
"o.XXXXXXXXXXXX. "
};
