/* XPM */
static char *result[] = {
/* columns rows colors chars-per-pixel */
"16 16 4 1 ",
"  c #2C64E9",
". c #3B55A9",
"X c #F47E1B",
"o c white",
/* pixels */
"    .         .X",
"             ...",
"      .       . ",
"     . .        ",
"      .     .   ",
"                ",
"                ",
"  .             ",
"                ",
"           .    ",
"          . .   ",
"           .    ",
"                ",
" .              ",
"...     .       ",
"X.              "
};
