/* XPM */
static char *a764df4262a041aec42c46f7255f3686AfhMBvfSfE2Vheuz[] = {
/* columns rows colors chars-per-pixel */
"16 16 161 2 ",
"   c #C36A4A",
".  c #C46B4B",
"X  c #C76E4E",
"o  c #CA7151",
"O  c #C56C4C",
"+  c #BF6646",
"@  c #BC6343",
"#  c #C16848",
"$  c #C26949",
"%  c #C06747",
"&  c #D27959",
"*  c #D17858",
"=  c #CA6B4D",
"-  c #CC6F50",
";  c #D17455",
":  c #D47758",
">  c #CF7253",
",  c #C56849",
"<  c #C26546",
"1  c #C06344",
"2  c #BF6243",
"3  c #BB5E3F",
"4  c #BD6041",
"5  c #C6694A",
"6  c #C36446",
"7  c #C7684A",
"8  c #CE6F51",
"9  c #D27355",
"0  c #CD6E50",
"q  c #C26345",
"w  c #BD5E40",
"e  c #BE5F41",
"r  c #C46547",
"t  c #C16244",
"y  c #BF6042",
"u  c #BB5C3E",
"i  c #BC5D3F",
"p  c #C66749",
"a  c #D07354",
"s  c #B85639",
"d  c #B95A3C",
"f  c #C06143",
"g  c #B55638",
"h  c #B65739",
"j  c #B04E31",
"k  c #B14F32",
"l  c #B65437",
"z  c #BC5A3D",
"x  c #BA583B",
"c  c #BF5D40",
"v  c #C76548",
"b  c #C36144",
"n  c #B45235",
"m  c #BB593C",
"M  c #B35134",
"N  c #B35436",
"B  c #AD4A2D",
"V  c #AB492C",
"C  c #AC4A2D",
"Z  c #AF4D30",
"A  c #AE4C2F",
"S  c #B75538",
"D  c #C26043",
"F  c #C56346",
"G  c #BD5B3E",
"H  c #B44F33",
"J  c #B04D30",
"K  c #AE4B2E",
"L  c #AC492C",
"P  c #A74427",
"I  c #A54225",
"U  c #AB482B",
"Y  c #B45134",
"T  c #C86548",
"R  c #C46144",
"E  c #BF5C3F",
"W  c #C05D40",
"Q  c #C56245",
"!  c #C66346",
"~  c #C25D41",
"^  c #BC593C",
"/  c #B95438",
"(  c #B24F32",
")  c #AB462A",
"_  c #A34023",
"`  c #A64125",
"'  c #C35E42",
"]  c #CF6C4F",
"[  c #D46F53",
"{  c #CB684B",
"}  c #C66145",
"|  c #BB583B",
" . c #C0583D",
".. c #BD583C",
"X. c #B64E33",
"o. c #A43F23",
"O. c #9B3318",
"+. c #9A3519",
"@. c #A23A1F",
"#. c #BE563B",
"$. c #CD684C",
"%. c #DB7358",
"&. c #D26D51",
"*. c #C45C41",
"=. c #BA5237",
"-. c #BA5539",
";. c #BB5137",
":. c #BC5439",
">. c #B0482D",
",. c #A73F24",
"<. c #A43C21",
"1. c #A33B20",
"2. c #C65E43",
"3. c #C55D42",
"4. c #BF573C",
"5. c #B85035",
"6. c #A74226",
"7. c #B64C32",
"8. c #BC5238",
"9. c #B54B31",
"0. c #AF452B",
"q. c #AE442A",
"w. c #AC4228",
"e. c #B74D33",
"r. c #B94F35",
"t. c #A1391E",
"y. c #BA5036",
"u. c #BD5339",
"i. c #B44A30",
"p. c #BF553B",
"a. c #C0563C",
"s. c #CB6147",
"d. c #C2583E",
"f. c #B3492F",
"g. c #AE462B",
"h. c #BF5339",
"j. c #C2563C",
"k. c #C1553B",
"l. c #BC5036",
"z. c #C75B41",
"x. c #CA5E44",
"c. c #C5593F",
"v. c #BB4F35",
"b. c #B2462C",
"n. c #B3472D",
"m. c #BA4E34",
"M. c #B64A30",
"N. c #BD5137",
"B. c #B0442A",
"V. c #B84C32",
"C. c #B4482E",
"Z. c #BE5238",
"A. c #BE543A",
"S. c #B74B31",
"D. c #B5492F",
"F. c #A83C22",
"G. c #C45A40",
"H. c #CB5F45",
"J. c #C95F45",
"K. c #CF654B",
"L. c white",
/* pixels */
"  . X o O + + . @ # $ % X & * X ",
"= - ; : > , < , 1 < 2 3 4 5 > ; ",
"6 7 8 9 0 q w e 7 r t y u i p a ",
"s d t p 6 i u e 7 f y 6 e g h f ",
"j k l z z x c v b s n x m M j N ",
"B V C Z A Z S D F x M n s x m G ",
"H J K L P I U Y T T R E W Q ! b ",
"~ ^ / ( ) _ ` L ' ] [ { } Q ' | ",
" ...X.o.O.+.@.o.#.$.%.&.*./ =.-.",
";.#.:.>.,.<.<.1.>.:.2.3.4.5.>.6.",
"7.;.8.9.0.q.q.w.7.e.7.7.r.r.0.t.",
"y.u.8.7.i.r.p.a.s.d.7.0.f.y.e.g.",
"h.j.k.l.l.j.z.z.x.c.v.b.n.m.h.;.",
"M.v.N.v.v.N.m.M.B.M.V.C.n.V.Z.A.",
"n.S.V.M.V.v.m.D.F.b.S.D.C.m.j.G.",
";.;.m.i.m.d.H.J.D.r.v.i.D.8.x.K."
};
